REM DIRINDEX 1\8,1\2\11,1\3\12,1\3\14,1\5\15,1\5\16,1\6\17,1\6\18,1\4\19,1\4\20,1\4\21,1\4\22,1\7\23,1\7\24,1\7\25,1\2\9\26,1\2\9\27,1\2\10\28,1\2\10\29,1\2\10\30,1\2\10\31,1\2\10\32,1\3\13\33,1\3\13\34,1\3\13\35
REM DIRNAME cjc123,folder01,folder02,folder03,folder04,folder05,folder06,folder07,folder08,folder09,folder10,folder11,folder12,folder13,folder14,folder15,folder16,folder17,folder18,folder19,folder20,folder21,folder22,folder23,folder24,folder25,folder26,folder27,folder28,folder29,folder30,folder31,folder32,folder33,folder34
TITLE ""
FILE "79 079_UNIT1_SET5.mp3" MP3
  TRACK 01 AUDIO
    TITLE "14:cjc123_7370"
    INDEX 01 00:00:00
  TRACK 02 AUDIO
    TITLE "0:"
    INDEX 01 00:02:43
  TRACK 03 AUDIO
    TITLE "33:cjc123_7371"
    INDEX 01 00:03:27
  TRACK 04 AUDIO
    TITLE "0:"
    INDEX 01 00:04:46
  TRACK 05 AUDIO
    TITLE "34:cjc123_7372"
    INDEX 01 00:04:62
  TRACK 06 AUDIO
    TITLE "0:"
    INDEX 01 00:06:10
  TRACK 07 AUDIO
    TITLE "35:cjc123_7373"
    INDEX 01 00:06:55
  TRACK 08 AUDIO
    TITLE "0:"
    INDEX 01 00:09:61
  TRACK 09 AUDIO
    TITLE "33:cjc123_7374"
    INDEX 01 00:10:51
  TRACK 10 AUDIO
    TITLE "0:"
    INDEX 01 00:11:58
  TRACK 11 AUDIO
    TITLE "34:cjc123_7375"
    INDEX 01 00:12:01
  TRACK 12 AUDIO
    TITLE "0:"
    INDEX 01 00:13:08
  TRACK 13 AUDIO
    TITLE "35:cjc123_7376"
    INDEX 01 00:13:53
  TRACK 14 AUDIO
    TITLE "0:"
    INDEX 01 00:16:16
  TRACK 15 AUDIO
    TITLE "33:cjc123_7377"
    INDEX 01 00:17:04
  TRACK 16 AUDIO
    TITLE "0:"
    INDEX 01 00:18:01
  TRACK 17 AUDIO
    TITLE "34:cjc123_7378"
    INDEX 01 00:18:21
  TRACK 18 AUDIO
    TITLE "0:"
    INDEX 01 00:19:22
  TRACK 19 AUDIO
    TITLE "35:cjc123_7379"
    INDEX 01 00:19:73
  TRACK 20 AUDIO
    TITLE "0:"
    INDEX 01 00:22:58
  TRACK 21 AUDIO
    TITLE "33:cjc123_7380"
    INDEX 01 00:23:34
  TRACK 22 AUDIO
    TITLE "0:"
    INDEX 01 00:24:31
  TRACK 23 AUDIO
    TITLE "34:cjc123_7381"
    INDEX 01 00:24:41
  TRACK 24 AUDIO
    TITLE "0:"
    INDEX 01 00:25:35
  TRACK 25 AUDIO
    TITLE "35:cjc123_7382"
    INDEX 01 00:26:09
  TRACK 26 AUDIO
    TITLE "0:"
    INDEX 01 00:28:25
  TRACK 27 AUDIO
    TITLE "33:cjc123_7383"
    INDEX 01 00:28:70
  TRACK 28 AUDIO
    TITLE "0:"
    INDEX 01 00:30:08
  TRACK 29 AUDIO
    TITLE "34:cjc123_7384"
    INDEX 01 00:30:28
  TRACK 30 AUDIO
    TITLE "0:"
    INDEX 01 00:31:43
  TRACK 31 AUDIO
    TITLE "35:cjc123_7385"
    INDEX 01 00:32:17
  TRACK 32 AUDIO
    TITLE "0:"
    INDEX 01 00:35:14
  TRACK 33 AUDIO
    TITLE "33:cjc123_7386"
    INDEX 01 00:35:63
  TRACK 34 AUDIO
    TITLE "0:"
    INDEX 01 00:36:62
  TRACK 35 AUDIO
    TITLE "34:cjc123_7387"
    INDEX 01 00:37:07
  TRACK 36 AUDIO
    TITLE "0:"
    INDEX 01 00:37:67
  TRACK 37 AUDIO
    TITLE "35:cjc123_7388"
    INDEX 01 00:38:41
  TRACK 38 AUDIO
    TITLE "0:"
    INDEX 01 00:41:22
  TRACK 39 AUDIO
    TITLE "33:cjc123_7389"
    INDEX 01 00:41:73
  TRACK 40 AUDIO
    TITLE "0:"
    INDEX 01 00:42:65
  TRACK 41 AUDIO
    TITLE "34:cjc123_7390"
    INDEX 01 00:43:13
  TRACK 42 AUDIO
    TITLE "0:"
    INDEX 01 00:44:12
  TRACK 43 AUDIO
    TITLE "35:cjc123_7391"
    INDEX 01 00:44:58
  TRACK 44 AUDIO
    TITLE "0:"
    INDEX 01 00:47:58
  TRACK 45 AUDIO
    TITLE "33:cjc123_7392"
    INDEX 01 00:48:42
  TRACK 46 AUDIO
    TITLE "0:"
    INDEX 01 00:49:43
  TRACK 47 AUDIO
    TITLE "34:cjc123_7393"
    INDEX 01 00:49:63
  TRACK 48 AUDIO
    TITLE "0:"
    INDEX 01 00:50:58
  TRACK 49 AUDIO
    TITLE "35:cjc123_7394"
    INDEX 01 00:51:36
  TRACK 50 AUDIO
    TITLE "0:"
    INDEX 01 00:54:38
  TRACK 51 AUDIO
    TITLE "33:cjc123_7395"
    INDEX 01 00:55:06
  TRACK 52 AUDIO
    TITLE "0:"
    INDEX 01 00:55:67
  TRACK 53 AUDIO
    TITLE "34:cjc123_7396"
    INDEX 01 00:56:25
  TRACK 54 AUDIO
    TITLE "0:"
    INDEX 01 00:57:13
  TRACK 55 AUDIO
    TITLE "35:cjc123_7397"
    INDEX 01 00:57:58
  TRACK 56 AUDIO
    TITLE "0:"
    INDEX 01 01:01:07
  TRACK 57 AUDIO
    TITLE "33:cjc123_7398"
    INDEX 01 01:01:58
  TRACK 58 AUDIO
    TITLE "0:"
    INDEX 01 01:03:02
  TRACK 59 AUDIO
    TITLE "34:cjc123_7399"
    INDEX 01 01:03:16
  TRACK 60 AUDIO
    TITLE "0:"
    INDEX 01 01:04:37
  TRACK 61 AUDIO
    TITLE "35:cjc123_7400"
    INDEX 01 01:05:11
  TRACK 62 AUDIO
    TITLE "0:"
    INDEX 01 01:08:01
  TRACK 63 AUDIO
    TITLE "33:cjc123_7401"
    INDEX 01 01:08:56
  TRACK 64 AUDIO
    TITLE "0:"
    INDEX 01 01:09:73
  TRACK 65 AUDIO
    TITLE "34:cjc123_7402"
    INDEX 01 01:10:12
  TRACK 66 AUDIO
    TITLE "0:"
    INDEX 01 01:11:25
  TRACK 67 AUDIO
    TITLE "35:cjc123_7403"
    INDEX 01 01:11:74
  TRACK 68 AUDIO
    TITLE "0:"
    INDEX 01 01:15:52
  TRACK 69 AUDIO
    TITLE "33:cjc123_7404"
    INDEX 01 01:16:24
  TRACK 70 AUDIO
    TITLE "0:"
    INDEX 01 01:17:16
  TRACK 71 AUDIO
    TITLE "34:cjc123_7405"
    INDEX 01 01:17:35
  TRACK 72 AUDIO
    TITLE "0:"
    INDEX 01 01:18:25
  TRACK 73 AUDIO
    TITLE "35:cjc123_7406"
    INDEX 01 01:18:72
  TRACK 74 AUDIO
    TITLE "0:"
    INDEX 01 01:22:25
  TRACK 75 AUDIO
    TITLE "33:cjc123_7407"
    INDEX 01 01:23:01
  TRACK 76 AUDIO
    TITLE "0:"
    INDEX 01 01:24:20
  TRACK 77 AUDIO
    TITLE "34:cjc123_7408"
    INDEX 01 01:24:32
  TRACK 78 AUDIO
    TITLE "0:"
    INDEX 01 01:25:37
  TRACK 79 AUDIO
    TITLE "35:cjc123_7409"
    INDEX 01 01:26:07
  TRACK 80 AUDIO
    TITLE "0:"
    INDEX 01 01:29:05
  TRACK 81 AUDIO
    TITLE "33:cjc123_7410"
    INDEX 01 01:29:60
  TRACK 82 AUDIO
    TITLE "0:"
    INDEX 01 01:30:46
  TRACK 83 AUDIO
    TITLE "34:cjc123_7411"
    INDEX 01 01:30:69
  TRACK 84 AUDIO
    TITLE "0:"
    INDEX 01 01:31:65
  TRACK 85 AUDIO
    TITLE "35:cjc123_7412"
    INDEX 01 01:32:39
  TRACK 86 AUDIO
    TITLE "0:"
    INDEX 01 01:34:59
  TRACK 87 AUDIO
    TITLE "33:cjc123_7413"
    INDEX 01 01:35:41
  TRACK 88 AUDIO
    TITLE "0:"
    INDEX 01 01:36:25
  TRACK 89 AUDIO
    TITLE "34:cjc123_7414"
    INDEX 01 01:36:43
  TRACK 90 AUDIO
    TITLE "0:"
    INDEX 01 01:37:28
  TRACK 91 AUDIO
    TITLE "35:cjc123_7415"
    INDEX 01 01:38:06
  TRACK 92 AUDIO
    TITLE "0:"
    INDEX 01 01:41:22
